<svg width="62" height="81" viewBox="0 0 62 81" fill="none" xmlns="http://www.w3.org/2000/svg">
            <g clip-path="url(#clip0_2_12065)">
              <path d="M57.3924 72.2697C57.1824 72.2697 57.0224 72.0797 57.0324 71.8697C57.7224 57.0797 57.8024 53.8196 57.9324 41.4897C58.0624 27.5497 57.5124 17.8897 48.9424 10.7097C46.4824 8.65965 39.9924 6.71965 34.6224 7.22965C33.1824 7.35965 31.8424 7.56965 30.5924 7.85965C30.4924 7.76965 30.4024 7.68965 30.3024 7.60965C21.1224 -0.240346 14.1724 0.189653 1.53236 0.969653L0.922363 1.00965L0.982363 2.00965L1.60236 1.96965C13.8524 1.20965 20.6524 0.789654 29.4024 8.13965C25.6824 9.17965 22.9224 10.9297 21.1624 13.3797C19.4824 15.7197 18.9924 19.0897 19.9124 21.9697C20.6624 24.2797 22.2024 25.9297 24.2424 26.6197C26.0824 27.2397 28.1324 26.9797 30.0224 25.8897C32.3224 24.5697 34.0724 22.1797 34.6024 19.6597C35.4124 15.7497 34.2024 11.6797 31.4424 8.68965C32.4624 8.47965 33.5624 8.31965 34.7224 8.20965C40.1124 7.70965 46.2624 9.76965 48.3024 11.4697C56.5324 18.3597 57.0624 27.8197 56.9324 41.4697C56.8024 53.7797 56.7224 57.0397 56.0324 71.8297C56.0324 72.0397 55.8424 72.2097 55.6324 72.1997L52.1524 72.0497C51.8624 72.0397 51.6624 72.3397 51.8024 72.5997L55.7924 80.2897C55.9224 80.5497 56.2924 80.5597 56.4524 80.3197L61.1124 73.0197C61.2724 72.7697 61.1024 72.4497 60.8124 72.4397L57.3824 72.2897L57.3924 72.2697ZM33.6224 19.4597C33.1524 21.7097 31.5824 23.8397 29.5224 25.0297C27.8924 25.9697 26.1224 26.1997 24.5624 25.6697C22.8224 25.0897 21.5124 23.6697 20.8724 21.6597C20.0324 19.0797 20.4724 16.0597 21.9724 13.9697C23.6924 11.5697 26.4824 9.88965 30.2924 8.93965C33.1324 11.7297 34.4024 15.6797 33.6224 19.4597Z" fill="#231F20"/>
            </g>
            <defs>
              <clipPath id="clip0_2_12065">
                <rect width="60.26" height="79.91" fill="white" transform="translate(0.922363 0.569702)"/>
              </clipPath>
            </defs>
</svg>